<svg xmlns="http://www.w3.org/2000/svg" width="46.152" height="34.909" viewBox="0 0 46.152 34.909">
    <path data-name="패스 3565" d="M-12.972 2.253A5.3 5.3 0 0 0-8.019-.794l-2.519-1.192a2.726 2.726 0 0 1-2.434 1.652 3.137 3.137 0 0 1-3.166-3.286 3.127 3.127 0 0 1 3.166-3.28 2.726 2.726 0 0 1 2.434 1.651l2.519-1.209a5.236 5.236 0 0 0-4.953-3.03 5.8 5.8 0 0 0-6.145 5.868 5.806 5.806 0 0 0 6.145 5.873zm13.345-.2V-.5h-4.562v-8.8h-2.928V2.049zm4.119 0V-9.3H1.564V2.049zm7.3.2a5.3 5.3 0 0 0 4.956-3.047l-2.519-1.191a2.726 2.726 0 0 1-2.435 1.651A3.137 3.137 0 0 1 8.628-3.62a3.127 3.127 0 0 1 3.166-3.28 2.726 2.726 0 0 1 2.434 1.651l2.519-1.209a5.236 5.236 0 0 0-4.953-3.03A5.8 5.8 0 0 0 5.65-3.62a5.806 5.806 0 0 0 6.144 5.873zm16.171-.2-4.645-6.047L27.727-9.3h-3.609l-3.489 4.659V-9.3H17.7V2.049h2.928v-3.32l.766-.953 2.979 4.272z" transform="rotate(32 -22.992 39.435)" style="fill:#fff"/>
</svg>
