<?xml version="1.0" encoding="utf-8"?>
<!-- Generator: Adobe Illustrator 26.0.3, SVG Export Plug-In . SVG Version: 6.00 Build 0)  -->
<svg version="1.1" id="Layer_1" xmlns="http://www.w3.org/2000/svg" xmlns:xlink="http://www.w3.org/1999/xlink" x="0px" y="0px"
	 viewBox="0 0 141.05 100.89" style="enable-background:new 0 0 141.05 100.89;" xml:space="preserve">
<style type="text/css">
	.st0{fill:none;stroke:#000000;stroke-width:4;stroke-linecap:round;stroke-miterlimit:10;}
	.st1{fill:none;stroke:#000000;stroke-width:4;stroke-linecap:round;stroke-miterlimit:10.002;}
	.st2{fill:none;stroke:#000000;stroke-width:4;stroke-linecap:round;stroke-linejoin:round;}
</style>
<g id="그룹_2179" transform="translate(-828.413 -15848.81)">
	<path id="패스_3418" class="st0" d="M830.41,15874.38c6.42-15.2,21.83-24.38,39.87-23.51c30.17,1.44,39.83,28.08,40.07,35.18
		c0.23,7.06-1.27,14.61-8.07,17.97c-3.53,1.5-8.64,1.04-11.2-3.52c-2.23-3.97-1.24-9.84,4.23-13.58
		c13.16-8.98,33.63-2.39,45.88,10.39c11.43,11.91,12.74,32.72,10.27,47.15"/>
	<path id="패스_3419" class="st0" d="M937.29,15929.48c5.35,5.01,10.05,10.65,14.02,16.82c4.87-5.99,10.27-11.51,16.16-16.5"/>
</g>
</svg>
