<?xml version="1.0" encoding="utf-8"?>
<!-- Generator: Adobe Illustrator 26.0.3, SVG Export Plug-In . SVG Version: 6.00 Build 0)  -->
<svg version="1.1" id="레이어_1" xmlns="http://www.w3.org/2000/svg" xmlns:xlink="http://www.w3.org/1999/xlink" x="0px"
	 y="0px" viewBox="0 0 417.5 422" style="enable-background:new 0 0 417.5 422;" xml:space="preserve">
<style type="text/css">
	.st0{fill:#779CD6;}
</style>
<path id="패스_3456" class="st0" d="M184.3,0l-35.9,31.6l-47.6-4.4l-20,43.6L35.6,86.2l-0.6,48L0,166.8l18.9,44.1L0,255l35.1,32.6
	l0.7,48L81,351.1l20,43.6l47.5-4.4l35.9,31.7l41.7-23.4l45.6,14.2l28.6-38.4l47.4-5.6l10.5-46.8l41-24.5l-9.3-47.1l27.5-39.2
	l-27.6-39.2l9.3-47.1l-41-24.6l-10.6-46.8l-47.4-5.7L271.6,9.3L226,23.5L184.3,0z"/>
</svg>
