<?xml version="1.0" encoding="utf-8"?>
<!-- Generator: Adobe Illustrator 26.0.3, SVG Export Plug-In . SVG Version: 6.00 Build 0)  -->
<svg version="1.1" id="레이어_1" xmlns="http://www.w3.org/2000/svg" xmlns:xlink="http://www.w3.org/1999/xlink" x="0px"
	 y="0px" viewBox="0 0 411.1 411.1" style="enable-background:new 0 0 411.1 411.1;" xml:space="preserve">
<style type="text/css">
	.st0{fill:#FFB1BA;}
</style>
<path id="패스_3156" class="st0" d="M239.8,11.1l24.5,17.7c7.4,5.3,15.9,8.9,24.9,10.3l29.8,4.8c24.9,4,44.3,23.5,48.3,48.4
	l4.8,29.8c1.5,9,5,17.5,10.3,24.9l17.7,24.5c14.7,20.4,14.7,48,0,68.4l-17.7,24.5c-5.3,7.4-8.9,15.9-10.3,24.9l-4.8,29.8
	c-4,24.9-23.5,44.3-48.4,48.3l-29.8,4.8c-9,1.4-17.5,5-24.9,10.3l-24.5,17.7c-20.4,14.7-48,14.7-68.4,0l-24.5-17.7
	c-7.4-5.3-15.9-8.9-24.9-10.3l-29.8-4.8c-24.9-4-44.3-23.5-48.3-48.4L39,289c-1.4-9-5-17.5-10.3-24.9L11,239.7
	c-14.7-20.4-14.7-48,0-68.4l17.7-24.5c5.3-7.4,8.9-15.9,10.3-24.9l4.8-29.8c4-24.9,23.5-44.3,48.4-48.3l29.8-4.8
	c9-1.5,17.5-5,24.9-10.3L171.4,11C191.9-3.7,219.4-3.7,239.8,11.1"/>
</svg>
