<svg xmlns="http://www.w3.org/2000/svg" width="89.675" height="89.675" viewBox="0 0 89.675 89.675">
    <g data-name="그룹 2109">
        <path data-name="패스 2755" d="M0 34.443a34.443 34.443 0 1 1 34.443 34.443A34.443 34.443 0 0 1 0 34.443" transform="rotate(-22 66.378 12.902)" style="fill:#ffe35c"/>
        <g data-name="그룹 2108">
            <path data-name="패스 2756" d="M32.49 27.288c0 5.31-1.638 9.614-3.659 9.614s-3.659-4.3-3.659-9.614 1.638-9.614 3.659-9.614 3.659 4.3 3.659 9.614" transform="rotate(-22 62.652 21.236)" style="fill:#0f0f0f"/>
            <path data-name="패스 2757" d="M50.276 27.288c0 5.31-1.638 9.614-3.659 9.614s-3.659-4.3-3.659-9.614 1.638-9.614 3.659-9.614 3.659 4.3 3.659 9.614" transform="rotate(-22 63.663 26.416)" style="fill:#0f0f0f"/>
            <path data-name="패스 2758" d="M35.753 63.028a24.213 24.213 0 0 1-24.186-24.186h4.369a19.817 19.817 0 1 0 39.634 0h4.369a24.213 24.213 0 0 1-24.186 24.186" transform="rotate(-22 55.717 18.47)" style="fill:#0f0f0f"/>
        </g>
    </g>
</svg>
