<svg xmlns="http://www.w3.org/2000/svg" width="103.098" height="98.361" viewBox="0 0 103.098 98.361">
  <defs>
    <style>
      .cls-1 {
        fill: #ef6a39;
      }

      .cls-2 {
        fill: #0f0f0f;
      }
    </style>
  </defs>
  <g id="그룹_2104" data-name="그룹 2104" transform="translate(-1507.053 -5069.611)">
    <path id="패스_3160" data-name="패스 3160" class="cls-1" d="M313.551,829.764c-1.346-11.981-9.234-20.215-20.049-21.133A20.419,20.419,0,0,0,276.637,815c-1.2,1.2-2.22,2.618-3.461,4.11-1.241-1.492-2.262-2.912-3.461-4.11a20.466,20.466,0,0,0-16.865-6.366c-10.815.919-18.7,9.152-20.049,21.133a40.62,40.62,0,0,0,5.406,25.43,57,57,0,0,0,26.908,23.9,18.9,18.9,0,0,0,16.124,0,57,57,0,0,0,26.908-23.9,40.618,40.618,0,0,0,5.406-25.43" transform="matrix(0.921, 0.391, -0.391, 0.921, 1637.201, 4234.484)"/>
    <g id="그룹_2103" data-name="그룹 2103">
      <path id="패스_3180" data-name="패스 3180" class="cls-2" d="M32.49,27.288c0,5.31-1.638,9.614-3.659,9.614s-3.659-4.3-3.659-9.614,1.638-9.614,3.659-9.614,3.659,4.3,3.659,9.614" transform="matrix(0.921, 0.391, -0.391, 0.921, 1538.578, 5070.518)"/>
      <path id="패스_3181" data-name="패스 3181" class="cls-2" d="M50.276,27.288c0,5.31-1.638,9.614-3.659,9.614s-3.659-4.3-3.659-9.614,1.638-9.614,3.659-9.614,3.659,4.3,3.659,9.614" transform="matrix(0.921, 0.391, -0.391, 0.921, 1536.724, 5069.73)"/>
      <path id="패스_3182" data-name="패스 3182" class="cls-2" d="M35.753,63.028A24.213,24.213,0,0,1,11.567,38.842h4.369a19.817,19.817,0,1,0,39.634,0h4.369A24.213,24.213,0,0,1,35.753,63.028" transform="matrix(0.921, 0.391, -0.391, 0.921, 1540.934, 5068.912)"/>
    </g>
  </g>
</svg>
